<svg width="111" height="30" viewBox="0 0 111 30" fill="none" xmlns="http://www.w3.org/2000/svg">
<path d="M14.2 29.736C13.8587 29.736 13.528 29.6933 13.208 29.608C12.9093 29.5227 12.632 29.3733 12.376 29.16C12.1413 28.9467 11.9493 28.6587 11.8 28.296C11.672 27.9333 11.608 27.4747 11.608 26.92V22.824H3.064C2.46667 22.824 1.976 22.76 1.592 22.632C1.208 22.504 0.909333 22.344 0.696 22.152C0.482667 21.9387 0.333333 21.704 0.248 21.448C0.184 21.1707 0.152 20.904 0.152 20.648C0.152 20.328 0.184 20.04 0.248 19.784C0.333333 19.5067 0.482667 19.272 0.696 19.08C0.909333 18.8667 1.208 18.7067 1.592 18.6C1.976 18.472 2.46667 18.408 3.064 18.408H25.304C25.9013 18.408 26.392 18.472 26.776 18.6C27.16 18.7067 27.4587 18.8667 27.672 19.08C27.8853 19.272 28.024 19.5067 28.088 19.784C28.1733 20.04 28.216 20.328 28.216 20.648C28.216 20.904 28.1733 21.1707 28.088 21.448C28.024 21.704 27.8853 21.9387 27.672 22.152C27.4587 22.344 27.16 22.504 26.776 22.632C26.392 22.76 25.9013 22.824 25.304 22.824H16.792V26.92C16.792 27.4747 16.7173 27.9333 16.568 28.296C16.4187 28.6587 16.2267 28.9467 15.992 29.16C15.7573 29.3733 15.48 29.5227 15.16 29.608C14.8613 29.6933 14.5413 29.736 14.2 29.736ZM8.728 15.656C6.46667 15.6347 4.78133 15.144 3.672 14.184C2.584 13.2027 2.04 11.848 2.04 10.12V8.52C2.04 7.66667 2.18933 6.87733 2.488 6.152C2.808 5.42667 3.26667 4.808 3.864 4.296C4.46133 3.76267 5.176 3.34667 6.008 3.048C6.84 2.74933 7.78933 2.6 8.856 2.6H19.48C20.5253 2.6 21.464 2.74933 22.296 3.048C23.1493 3.34667 23.8747 3.76267 24.472 4.296C25.0693 4.808 25.5173 5.42667 25.816 6.152C26.136 6.87733 26.296 7.66667 26.296 8.52V10.12C26.296 11.848 25.752 13.2027 24.664 14.184C23.576 15.144 21.9013 15.6347 19.64 15.656H8.728ZM18.52 11.272C19.4373 11.2293 20.0987 11.0907 20.504 10.856C20.9093 10.6213 21.112 10.1093 21.112 9.32V8.936C21.112 8.12533 20.9093 7.60267 20.504 7.368C20.0987 7.112 19.4053 6.984 18.424 6.984H9.912C8.93067 6.984 8.23733 7.112 7.832 7.368C7.42667 7.60267 7.224 8.12533 7.224 8.936V9.32C7.224 10.1093 7.42667 10.6213 7.832 10.856C8.23733 11.0907 8.89867 11.2293 9.816 11.272H18.52ZM34.5263 28.936C33.9289 28.936 33.4596 28.872 33.1183 28.744C32.7769 28.6373 32.5103 28.4773 32.3183 28.264C32.1476 28.072 32.0409 27.8373 31.9983 27.56C31.9556 27.304 31.9343 27.016 31.9343 26.696V15.336C31.9343 15.016 31.9556 14.7173 31.9983 14.44C32.0409 14.1413 32.1476 13.8747 32.3183 13.64C32.5103 13.4053 32.7769 13.224 33.1183 13.096C33.4596 12.9467 33.9289 12.872 34.5263 12.872H39.4863V7.08H34.8783C34.2809 7.08 33.7903 7.016 33.4062 6.888C33.0223 6.76 32.7236 6.6 32.5103 6.408C32.2969 6.19467 32.1476 5.96 32.0623 5.704C31.9983 5.42666 31.9663 5.16 31.9663 4.904C31.9663 4.584 31.9983 4.296 32.0623 4.04C32.1476 3.76267 32.2969 3.528 32.5103 3.336C32.7236 3.12267 33.0223 2.96267 33.4062 2.856C33.7903 2.728 34.2809 2.664 34.8783 2.664H42.0783C42.6756 2.664 43.1449 2.73867 43.4863 2.888C43.8276 3.016 44.0836 3.19733 44.2543 3.432C44.4463 3.66667 44.5636 3.93333 44.6063 4.232C44.6489 4.50933 44.6703 4.808 44.6703 5.128V14.76C44.6703 15.656 44.4036 16.3067 43.8703 16.712C43.3583 17.096 42.6436 17.288 41.7263 17.288H37.1183V24.52H42.6223C43.2196 24.52 43.7103 24.584 44.0943 24.712C44.4783 24.84 44.7769 25 44.9903 25.192C45.2036 25.4053 45.3423 25.64 45.4062 25.896C45.4916 26.1733 45.5343 26.44 45.5343 26.696C45.5343 27.016 45.4916 27.304 45.4062 27.56C45.3423 27.8373 45.2036 28.072 44.9903 28.264C44.7769 28.4773 44.4783 28.6373 44.0943 28.744C43.7103 28.872 43.2196 28.936 42.6223 28.936H34.5263ZM54.4303 29.736C54.0889 29.736 53.7583 29.6933 53.4383 29.608C53.1396 29.5227 52.8623 29.3733 52.6063 29.16C52.3716 28.9467 52.1796 28.6587 52.0303 28.296C51.9023 27.9333 51.8383 27.4747 51.8383 26.92V5.064C51.8383 3.99733 52.0943 3.272 52.6063 2.888C53.1396 2.48267 53.7476 2.28 54.4303 2.28C54.7716 2.28 55.0916 2.32267 55.3903 2.408C55.7103 2.49333 55.9876 2.64267 56.2223 2.856C56.4569 3.06933 56.6489 3.35733 56.7983 3.72C56.9476 4.08267 57.0223 4.53067 57.0223 5.064V26.92C57.0223 27.4747 56.9476 27.9333 56.7983 28.296C56.6489 28.6587 56.4569 28.9467 56.2223 29.16C55.9876 29.3733 55.7103 29.5227 55.3903 29.608C55.0916 29.6933 54.7716 29.736 54.4303 29.736ZM92.6851 29.416C91.4477 29.416 90.4024 29.2773 89.5491 29C88.7171 28.7227 88.0344 28.3067 87.5011 27.752C86.9677 27.2187 86.5624 26.5467 86.2851 25.736C86.0291 24.9467 85.8691 24.0293 85.8051 22.984C85.7837 22.792 85.7731 22.344 85.7731 21.64C85.7731 20.9147 85.7624 20.0613 85.7411 19.08C85.7411 18.0987 85.7411 17.0533 85.7411 15.944C85.7411 14.8347 85.7411 13.7893 85.7411 12.808C85.7624 11.8267 85.7731 10.984 85.7731 10.28C85.7731 9.576 85.7837 9.128 85.8051 8.936C85.8691 7.86933 86.0291 6.93067 86.2851 6.12C86.5411 5.30933 86.9357 4.62667 87.4691 4.072C88.0024 3.51733 88.6851 3.10133 89.5171 2.824C90.3704 2.52533 91.4264 2.376 92.6851 2.376C93.8584 2.376 94.8611 2.52533 95.6931 2.824C96.5464 3.10133 97.2397 3.51733 97.7731 4.072C98.3277 4.62667 98.7437 5.32 99.0211 6.152C99.3197 6.96267 99.5011 7.89067 99.5651 8.936C99.5651 9.128 99.5651 9.58667 99.5651 10.312C99.5864 11.016 99.5971 11.8587 99.5971 12.84C99.5971 13.8213 99.5971 14.8667 99.5971 15.976C99.6184 17.0853 99.6184 18.1307 99.5971 19.112C99.5971 20.0933 99.5864 20.9467 99.5651 21.672C99.5651 22.376 99.5651 22.8133 99.5651 22.984C99.5224 25.1387 98.9677 26.7493 97.9011 27.816C96.8344 28.8827 95.0957 29.416 92.6851 29.416ZM92.6851 25.064C92.8557 25.064 93.0371 25.0427 93.2291 25C93.4211 24.9787 93.5917 24.8933 93.7411 24.744C93.9117 24.5947 94.0504 24.392 94.1571 24.136C94.2851 23.8587 94.3597 23.4747 94.3811 22.984C94.3811 22.792 94.3811 22.3333 94.3811 21.608C94.4024 20.8613 94.4131 19.9973 94.4131 19.016V12.712C94.4131 11.7093 94.4024 10.856 94.3811 10.152C94.3811 9.448 94.3811 9 94.3811 8.808C94.3811 8.36 94.3277 7.99733 94.2211 7.72C94.1144 7.44267 93.9757 7.24 93.8051 7.112C93.6344 6.96267 93.4424 6.86667 93.2291 6.824C93.0371 6.78133 92.8557 6.76 92.6851 6.76C92.5144 6.76 92.3331 6.792 92.1411 6.856C91.9491 6.89867 91.7677 6.99467 91.5971 7.144C91.4477 7.29333 91.3091 7.51733 91.1811 7.816C91.0744 8.09333 91.0104 8.456 90.9891 8.904C90.9891 9.096 90.9784 9.55467 90.9571 10.28C90.9571 11.0053 90.9464 11.8587 90.9251 12.84C90.9251 13.8213 90.9251 14.8667 90.9251 15.976C90.9251 17.0853 90.9251 18.1307 90.9251 19.112C90.9464 20.0933 90.9571 20.9467 90.9571 21.672C90.9571 22.376 90.9677 22.8133 90.9891 22.984C90.9891 23.4747 91.0424 23.8587 91.1491 24.136C91.2557 24.392 91.3837 24.5947 91.5331 24.744C91.7037 24.8933 91.8851 24.9787 92.0771 25C92.2904 25.0427 92.4931 25.064 92.6851 25.064ZM108.365 29.736C108.024 29.736 107.693 29.6933 107.373 29.608C107.074 29.5227 106.797 29.3733 106.541 29.16C106.306 28.9467 106.114 28.6587 105.965 28.296C105.837 27.9333 105.773 27.4747 105.773 26.92V5.064C105.773 3.99733 106.029 3.272 106.541 2.888C107.074 2.48267 107.682 2.28 108.365 2.28C108.706 2.28 109.026 2.32267 109.325 2.408C109.645 2.49333 109.922 2.64267 110.157 2.856C110.392 3.06933 110.584 3.35733 110.733 3.72C110.882 4.08267 110.957 4.53067 110.957 5.064V26.92C110.957 27.4747 110.882 27.9333 110.733 28.296C110.584 28.6587 110.392 28.9467 110.157 29.16C109.922 29.3733 109.645 29.5227 109.325 29.608C109.026 29.6933 108.706 29.736 108.365 29.736Z" fill="black"/>
<path d="M81.7005 18.304C82.6845 18.304 83.3565 18.508 83.7165 18.916C84.0765 19.3 84.2565 19.828 84.2565 20.5C84.2565 21.196 84.0645 21.748 83.6805 22.156C83.3205 22.564 82.6605 22.768 81.7005 22.768H79.9725V25.216C79.9725 25.936 79.7325 26.572 79.2525 27.124C78.7965 27.676 77.9925 27.952 76.8405 27.952C75.6885 27.952 74.8725 27.676 74.3925 27.124C73.9365 26.572 73.7085 25.936 73.7085 25.216V22.768H62.8725C62.2245 22.768 61.7325 22.564 61.3965 22.156C61.0605 21.748 60.8925 21.256 60.8925 20.68C60.8925 20.152 61.0365 19.624 61.3245 19.096L71.1885 1.888C71.7405 0.927999 72.5325 0.447999 73.5645 0.447999C74.0205 0.447999 74.5125 0.567998 75.0405 0.807998C76.0965 1.312 76.6245 2.068 76.6245 3.076C76.6245 3.604 76.4565 4.168 76.1205 4.768L68.1645 18.304H73.7085V12.796C73.7085 11.932 73.9605 11.224 74.4645 10.672C74.9685 10.12 75.7605 9.844 76.8405 9.844C77.8965 9.844 78.6765 10.12 79.1805 10.672C79.7085 11.224 79.9725 11.932 79.9725 12.796V18.304H81.7005Z" fill="#FB6066"/>
</svg>
